<svg xmlns="http://www.w3.org/2000/svg" width="0" height="0"><defs><symbol id="accessibility" fill="none" viewBox="0 0 15 15"><path fill="currentColor" fill-rule="evenodd" d="M.8772 7.49984c0-3.65768 2.96514-6.62283 6.62283-6.62283 3.65767 0 6.62287 2.96515 6.62287 6.62283 0 3.65766-2.9652 6.62286-6.62287 6.62286-3.65769 0-6.62283-2.9652-6.62283-6.62286m6.62283-5.67283c-3.13301 0-5.67283 2.53982-5.67283 5.67283 0 3.13296 2.53982 5.67286 5.67283 5.67286 3.13297 0 5.67287-2.5399 5.67287-5.67286 0-3.13301-2.5399-5.67283-5.67287-5.67283m-.37546 7.173c-.05463.12734-.79292 2.95919-.79292 2.95919-.07147.2668-.34564.4251-.61237.3536s-.42503-.3456-.35355-.6124c0 0 .88088-2.82772.88088-3.43033V6.80099l-1.95898-.52491c-.26673-.07147-.42502-.34563-.35355-.61237s.34564-.42502.61237-.35355c0 0 1.65397.56252 2.29934.56252h1.30926c.64537 0 2.29835-.56226 2.29835-.56226.2668-.07147.5409.08682.6124.35355.0715.26674-.0868.5409-.3536.61238l-1.96559.52668v1.46704c0 .60261.88002 3.42703.88002 3.42703.07147.2668-.08683.5409-.35356.6124s-.5409-.0868-.61237-.3535c0 0-.74076-2.82865-.79204-2.95599-.04872-.12733-.2186-.12733-.2186-.12733h-.30689s-.17323 0-.2186.12733m.37586-3.87994c.62132 0 1.125-.50368 1.125-1.125s-.50368-1.125-1.125-1.125-1.125.50368-1.125 1.125.50368 1.125 1.125 1.125" clip-rule="evenodd"/></symbol><symbol id="align-left" fill="none" viewBox="0 0 15 15"><path fill="currentColor" fill-rule="evenodd" d="M.5 1c-.27615 0-.5.22385-.5.49999V13.4999c0 .2761.22386.5.5.5s.5-.2239.5-.5V8.99993h11c.5523 0 1-.44771 1-1v-.99999c0-.55228-.4477-.99999-1-.99999H1V1.49999c0-.27614-.22386-.5-.5-.5" clip-rule="evenodd"/></symbol></defs></svg>